<svg xmlns="http://www.w3.org/2000/svg" xmlns:xlink="http://www.w3.org/1999/xlink" version="1.1"
 x="0px" y="0px" viewBox="0 0 64 80" fill="white" width="29.99px" heigth="29.99px"
 enable-background="new 0 0 64 64" xml:space="preserve"><path d="M8.7646484,36.3056641H4.1357422c-0.2763672,0-0.5-0.2236328-0.5-0.5s0.2236328-0.5,0.5-0.5h4.6289063  c0.2763672,0,0.5,0.2236328,0.5,0.5S9.0410156,36.3056641,8.7646484,36.3056641z"/><path d="M13.6821289,36.3056641h-1.7358398c-0.2763672,0-0.5-0.2236328-0.5-0.5s0.2236328-0.5,0.5-0.5h1.7358398  c0.2763672,0,0.5,0.2236328,0.5,0.5S13.9584961,36.3056641,13.6821289,36.3056641z"/><path d="M52.3632813,36.3056641h-1.7353516c-0.2763672,0-0.5-0.2236328-0.5-0.5s0.2236328-0.5,0.5-0.5h1.7353516  c0.2763672,0,0.5,0.2236328,0.5,0.5S52.6396484,36.3056641,52.3632813,36.3056641z"/><path d="M58.4794922,36.3056641h-4.2978516c-0.2763672,0-0.5-0.2236328-0.5-0.5s0.2236328-0.5,0.5-0.5h4.2978516  c0.2763672,0,0.5,0.2236328,0.5,0.5S58.7558594,36.3056641,58.4794922,36.3056641z"/><path d="M19.6123047,32.0107422H17.855957c-0.2763672,0-0.5-0.2236328-0.5-0.5s0.2236328-0.5,0.5-0.5h1.7563477  c0.2763672,0,0.5,0.2236328,0.5,0.5S19.8886719,32.0107422,19.6123047,32.0107422z"/><path d="M43.7675781,32.0107422h-1.0126953c-0.2763672,0-0.5-0.2236328-0.5-0.5s0.2236328-0.5,0.5-0.5h1.0126953  c0.2763672,0,0.5,0.2236328,0.5,0.5S44.0439453,32.0107422,43.7675781,32.0107422z"/><path d="M46.2265625,32.0107422h-1.3842773c-0.2763672,0-0.5-0.2236328-0.5-0.5s0.2236328-0.5,0.5-0.5h1.3842773  c0.2763672,0,0.5,0.2236328,0.5,0.5S46.5029297,32.0107422,46.2265625,32.0107422z"/><path d="M41.4741211,32.0107422H28.4770508c-0.2763672,0-0.5-0.2236328-0.5-0.5s0.2236328-0.5,0.5-0.5h12.9970703  c0.2763672,0,0.5,0.2236328,0.5,0.5S41.7504883,32.0107422,41.4741211,32.0107422z"/><path d="M41.6625977,30.3095703H22.3374023c-0.3339844,0-0.6459961-0.1669922-0.831543-0.4443359  s-0.2202148-0.6298828-0.0922852-0.9384766C23.1938477,24.6269531,27.3491211,21.8476563,32,21.8476563  s8.8061523,2.7792969,10.5864258,7.0791016c0.1279297,0.3085938,0.0932617,0.6611328-0.0922852,0.9384766  S41.996582,30.3095703,41.6625977,30.3095703z M23.9697266,28.3095703h16.0605469  C38.3237305,25.5576172,35.3139648,23.8476563,32,23.8476563S25.6762695,25.5576172,23.9697266,28.3095703z"/><path d="M32,44.7617188c-6.3173828,0-11.4570313-5.1396484-11.4570313-11.4570313c0-0.5527344,0.4477539-1,1-1h20.9140625  c0.5522461,0,1,0.4472656,1,1C43.4570313,39.6220703,38.3173828,44.7617188,32,44.7617188z M22.5957031,34.3046875  C23.0966797,39.0507813,27.1230469,42.7617188,32,42.7617188s8.9033203-3.7109375,9.4042969-8.4570313H22.5957031z"/><path d="M24.6367188,38.0800781c-0.1723633,0-0.3398438-0.0888672-0.4326172-0.2490234  c-0.4477539-0.7695313-0.7773438-1.5986328-0.9799805-2.4628906c-0.0629883-0.2685547,0.1040039-0.5380859,0.3725586-0.6005859  c0.2709961-0.0693359,0.5380859,0.1035156,0.6010742,0.3720703c0.1801758,0.7685547,0.4731445,1.5048828,0.8706055,2.1894531  c0.1391602,0.2382813,0.0576172,0.5449219-0.1806641,0.6835938C24.8085938,38.0585938,24.722168,38.0800781,24.6367188,38.0800781z"/><path d="M32,42.3183594c-2.2895508,0-4.4716797-0.859375-6.1445313-2.4199219  c-0.2021484-0.1875-0.2133789-0.5039063-0.0249023-0.7060547c0.1884766-0.2011719,0.5053711-0.2119141,0.706543-0.0244141  C28.0244141,40.5546875,29.9648438,41.3183594,32,41.3183594c0.2763672,0,0.5,0.2236328,0.5,0.5  S32.2763672,42.3183594,32,42.3183594z"/><path d="M38.7182617,39.0341797c-0.1074219,0-0.215332-0.0341797-0.3066406-0.1054688  c-0.2177734-0.1699219-0.2568359-0.484375-0.0874023-0.7021484c0.7973633-1.0224609,1.3383789-2.2363281,1.5649414-3.5087891  c0.0483398-0.2714844,0.3056641-0.4511719,0.5795898-0.4042969c0.2719727,0.0478516,0.453125,0.3076172,0.4047852,0.5800781  c-0.2548828,1.4316406-0.8632813,2.796875-1.7602539,3.9482422C39.0146484,38.9677734,38.8671875,39.0341797,38.7182617,39.0341797z  "/><path d="M23.3955078,42.9443359c-0.1230469,0-0.2460938-0.0449219-0.3427734-0.1357422  c-1.1713867-1.1025391-2.1191406-2.3935547-2.815918-3.8388672c-0.1201172-0.2480469-0.015625-0.546875,0.2329102-0.6669922  c0.2485352-0.1210938,0.5478516-0.015625,0.6674805,0.2333984c0.6435547,1.3330078,1.5185547,2.5253906,2.6010742,3.5439453  c0.2011719,0.1894531,0.2104492,0.5058594,0.0214844,0.7070313C23.6611328,42.8916016,23.5283203,42.9443359,23.3955078,42.9443359z  "/><path d="M41.0981445,42.4423828c-0.1235352,0-0.2475586-0.0458984-0.3442383-0.1376953  c-0.2001953-0.1894531-0.2084961-0.5058594-0.0185547-0.7070313c1.4277344-1.5039063,2.4472656-3.3564453,2.9487305-5.3564453  c0.0668945-0.2685547,0.3364258-0.4306641,0.6064453-0.3642578c0.2675781,0.0673828,0.4306641,0.3388672,0.3632813,0.6064453  c-0.5429688,2.1679688-1.6469727,4.1748047-3.1928711,5.8037109C41.3623047,42.390625,41.2304688,42.4423828,41.0981445,42.4423828z  "/><path d="M43.7963867,29.5273438c-0.2045898,0-0.3964844-0.1259766-0.4702148-0.3291016  c-0.4433594-1.2236328-1.0805664-2.3623047-1.894043-3.3847656c-0.1713867-0.2167969-0.1357422-0.53125,0.0805664-0.703125  c0.215332-0.1728516,0.5297852-0.1357422,0.7026367,0.0800781c0.8808594,1.1083984,1.5708008,2.3417969,2.0512695,3.6660156  c0.09375,0.2597656-0.0400391,0.546875-0.2998047,0.640625C43.9106445,29.5175781,43.8530273,29.5273438,43.7963867,29.5273438z"/><path d="M20.1005859,29.7929688c-0.0527344,0-0.1069336-0.0087891-0.159668-0.0263672  c-0.2617188-0.0878906-0.4023438-0.3720703-0.3139648-0.6337891c0.5795898-1.7177734,1.4960938-3.2724609,2.7236328-4.6181641  c0.1865234-0.2050781,0.5029297-0.2197266,0.706543-0.0322266c0.2041016,0.1855469,0.21875,0.5019531,0.0327148,0.7060547  c-1.1337891,1.2431641-1.9799805,2.6777344-2.515625,4.2646484C20.5039063,29.6611328,20.309082,29.7929688,20.1005859,29.7929688z"/><path d="M48.5849609,24.9394531c-0.1772461,0-0.3491211-0.0947266-0.4399414-0.2617188  c-1.1875-2.1845703-2.7797852-4.0791016-4.7333984-5.6298828c-0.2163086-0.171875-0.2524414-0.4863281-0.0805664-0.7021484  c0.171875-0.2177734,0.4848633-0.2539063,0.7026367-0.0810547c2.059082,1.6347656,3.7382813,3.6318359,4.9902344,5.9365234  c0.1318359,0.2421875,0.0419922,0.5458984-0.2006836,0.6777344C48.7475586,24.9199219,48.6655273,24.9394531,48.5849609,24.9394531z  "/><path d="M16.6254883,23.0527344c-0.0996094,0-0.2006836-0.0292969-0.2880859-0.0917969  c-0.2255859-0.1591797-0.2792969-0.4716797-0.1196289-0.6972656c3.625-5.1240234,9.5317383-8.1835938,15.800293-8.1835938  c2.6538086,0,5.2255859,0.5283203,7.644043,1.5693359c0.253418,0.109375,0.3706055,0.4033203,0.2617188,0.65625  c-0.1098633,0.2539063-0.4052734,0.3710938-0.6572266,0.2617188c-2.2924805-0.9873047-4.7314453-1.4873047-7.2485352-1.4873047  c-5.9443359,0-11.5458984,2.9013672-14.9838867,7.7617188C16.9365234,22.9794922,16.7822266,23.0527344,16.6254883,23.0527344z"/><path d="M18.9736328,45.3007813c-0.1391602,0-0.277832-0.0576172-0.3764648-0.1708984  c-2.0893555-2.3935547-3.5019531-5.3017578-4.0844727-8.4101563c-0.0512695-0.2714844,0.1274414-0.5322266,0.3989258-0.5830078  c0.2763672-0.0527344,0.5332031,0.1289063,0.5834961,0.3994141c0.550293,2.9326172,1.8833008,5.6767578,3.8549805,7.9355469  c0.1816406,0.2080078,0.1601563,0.5244141-0.0478516,0.7060547C19.2075195,45.2597656,19.090332,45.3007813,18.9736328,45.3007813z"/><path d="M25.3984375,49.9199219c-0.0639648,0-0.1289063-0.0117188-0.1914063-0.0380859  c-1.5678711-0.6494141-3.0356445-1.5214844-4.3632813-2.5927734c-0.2148438-0.1728516-0.2485352-0.4873047-0.0751953-0.703125  c0.1733398-0.2138672,0.4882813-0.25,0.703125-0.0742188c1.2529297,1.0107422,2.6386719,1.8339844,4.1181641,2.4462891  c0.2548828,0.1054688,0.3759766,0.3984375,0.2705078,0.6533203C25.7807617,49.8037109,25.5942383,49.9199219,25.3984375,49.9199219z  "/><path d="M43.3979492,46.9648438c-0.1391602,0-0.277832-0.0576172-0.3764648-0.1708984  c-0.1816406-0.2080078-0.1601563-0.5244141,0.0478516-0.7060547c1.777832-1.5517578,3.1850586-3.4189453,4.1821289-5.5488281  c0.1171875-0.2509766,0.4140625-0.359375,0.6645508-0.2412109c0.25,0.1171875,0.3579102,0.4150391,0.2407227,0.6650391  c-1.0556641,2.2568359-2.5463867,4.234375-4.4301758,5.8789063C43.6318359,46.9238281,43.5146484,46.9648438,43.3979492,46.9648438z  "/><path d="M32,48.7519531c-8.1811523,0-14.8974609-6.3935547-15.4140625-14.4472656H1.6665039c-0.5522461,0-1-0.4472656-1-1  s0.4477539-1,1-1c12.1772461,0,14.0351563-4.0351563,14.9277344-5.9746094l0.0512695-0.1113281  C19.402832,20.2529297,25.4301758,16.3984375,32,16.3984375s12.597168,3.8544922,15.3544922,9.8203125l0.0512695,0.1113281  c0.8925781,1.9394531,2.7504883,5.9746094,14.9277344,5.9746094c0.5522461,0,1,0.4472656,1,1s-0.4477539,1-1,1H47.4140625  C46.8974609,42.3583984,40.1811523,48.7519531,32,48.7519531z M13.4057617,32.3046875h4.1479492c0.5522461,0,1,0.4472656,1,1  c0,7.4150391,6.0317383,13.4472656,13.4462891,13.4472656s13.4462891-6.0322266,13.4462891-13.4472656c0-0.5527344,0.4477539-1,1-1  h4.1479492c-3.3769531-1.6005859-4.3852539-3.7919922-5.0048828-5.1376953l-0.050293-0.1083984l0,0  C43.1074219,21.7978516,37.7929688,18.3984375,32,18.3984375s-11.1074219,3.3994141-13.5390625,8.6601563l-0.050293,0.1083984  C17.7910156,28.5126953,16.7827148,30.7041016,13.4057617,32.3046875z"/><path d="M44.3666992,34.3046875H19.6333008c-0.5522461,0-1-0.4472656-1-1s0.4477539-1,1-1h24.7333984c0.5522461,0,1,0.4472656,1,1  S44.9189453,34.3046875,44.3666992,34.3046875z"/><path d="M11.9462891,56.2294922c-1.8359375,0-3.3295898-1.4941406-3.3295898-3.3300781s1.4936523-3.3300781,3.3295898-3.3300781  c1.8364258,0,3.3300781,1.4941406,3.3300781,3.3300781S13.7827148,56.2294922,11.9462891,56.2294922z M11.9462891,51.5693359  c-0.7329102,0-1.3295898,0.5966797-1.3295898,1.3300781s0.5966797,1.3300781,1.3295898,1.3300781  c0.7333984,0,1.3300781-0.5966797,1.3300781-1.3300781S12.6796875,51.5693359,11.9462891,51.5693359z"/><path d="M51.6977539,15.5800781c-1.8359375,0-3.3295898-1.4941406-3.3295898-3.3300781s1.4936523-3.3291016,3.3295898-3.3291016  S55.0273438,10.4140625,55.0273438,12.25S53.5336914,15.5800781,51.6977539,15.5800781z M51.6977539,10.9208984  c-0.7329102,0-1.3295898,0.5966797-1.3295898,1.3291016c0,0.7333984,0.5966797,1.3300781,1.3295898,1.3300781  S53.0273438,12.9833984,53.0273438,12.25C53.0273438,11.5175781,52.4306641,10.9208984,51.6977539,10.9208984z"/><path d="M15,13.25c-0.1303711,0-0.2602539-0.0302734-0.3803711-0.0800781  C14.5,13.1201172,14.3896484,13.0498047,14.2998047,12.9599609C14.1098633,12.7695313,14,12.5195313,14,12.25  c0-0.2597656,0.1098633-0.5205078,0.2998047-0.7099609c0.3701172-0.3701172,1.0400391-0.3701172,1.4101563,0  c0.0898438,0.0996094,0.1699219,0.2099609,0.2197266,0.3300781C15.9799805,11.9902344,16,12.1201172,16,12.25  c0,0.2695313-0.1000977,0.5195313-0.2900391,0.7099609c-0.090332,0.0898438-0.2001953,0.1601563-0.3203125,0.2099609  C15.2700195,13.2197266,15.1396484,13.25,15,13.25z"/><path d="M49.8896484,54.5595703c-0.2700195,0-0.5200195-0.109375-0.7099609-0.2998047  c-0.0898438-0.0898438-0.1699219-0.2001953-0.2197266-0.3203125c-0.050293-0.1201172-0.0703125-0.25-0.0703125-0.3798828  c0-0.2695313,0.1103516-0.5292969,0.2900391-0.7099609c0.050293-0.0498047,0.1000977-0.0898438,0.1499023-0.1201172  c0.0600586-0.0400391,0.1201172-0.0693359,0.1801758-0.0996094c0.0600586-0.0205078,0.1201172-0.0400391,0.1801758-0.0498047  c0.1298828-0.0302734,0.2597656-0.0302734,0.3896484,0c0.0703125,0.0097656,0.1303711,0.0292969,0.1904297,0.0498047  c0.0595703,0.0302734,0.1196289,0.0595703,0.1699219,0.0996094c0.0600586,0.0302734,0.1098633,0.0703125,0.159668,0.1201172  c0.1801758,0.1806641,0.2900391,0.4404297,0.2900391,0.7099609c0,0.1298828-0.0297852,0.2597656-0.0795898,0.3798828  c-0.050293,0.1201172-0.1201172,0.2304688-0.2104492,0.3203125C50.5,54.359375,50.3896484,54.4296875,50.2700195,54.4794922  C50.1499023,54.5302734,50.0200195,54.5595703,49.8896484,54.5595703z"/></svg>