<svg xmlns="http://www.w3.org/2000/svg" xmlns:xlink="http://www.w3.org/1999/xlink" version="1.1"
 x="0px" y="0px" viewBox="0 0 100 125" enable-background="new 0 0 100 100" xml:space="preserve"><path d="M90.6,40H79.4C77,40,75,42,75,44.4V49l-0.8-0.5L69.1,45v3.5H60v-4.1c0-2.4-2-4.4-4.4-4.4H44.4C42,40,40,42,40,44.4v4.5  l-0.6-0.4L34.3,45v3.5H25v-4.1c0-2.4-2-4.4-4.4-4.4H9.4C7,40,5,42,5,44.4v11.2C5,58,7,60,9.4,60h11.2c2.4,0,4.4-2,4.4-4.4v-4.1h9.3  V55l5.1-3.5l0.6-0.4v4.5c0,2.4,2,4.4,4.4,4.4h11.2c2.4,0,4.4-2,4.4-4.4v-4.1h9.1V55l5.1-3.5L75,51v4.6c0,2.4,2,4.4,4.4,4.4h11.2  c2.4,0,4.4-2,4.4-4.4V44.4C95,42,93,40,90.6,40z M22,55.6c0,0.8-0.6,1.4-1.4,1.4H9.4C8.6,57,8,56.4,8,55.6V44.4  C8,43.6,8.6,43,9.4,43h11.2c0.8,0,1.4,0.6,1.4,1.4V55.6z M57,55.6c0,0.8-0.6,1.4-1.4,1.4H44.4c-0.8,0-1.4-0.6-1.4-1.4V44.4  c0-0.8,0.6-1.4,1.4-1.4h11.2c0.8,0,1.4,0.6,1.4,1.4V55.6z M92,55.6c0,0.8-0.6,1.4-1.4,1.4H79.4c-0.8,0-1.4-0.6-1.4-1.4V44.4  c0-0.8,0.6-1.4,1.4-1.4h11.2c0.8,0,1.4,0.6,1.4,1.4V55.6z"/></svg>